<mxfile host="app.diagrams.net" modified="2023-11-22T19:19:35.895Z" agent="Mozilla/5.0 (Windows NT 10.0; Win64; x64) AppleWebKit/537.36 (KHTML, like Gecko) Chrome/119.0.0.0 Safari/537.36" etag="1O_bg9ZrqMZsipPDq5Wu" version="22.1.3" type="device">
  <diagram name="Page-1" id="DKarmOcI-OD9hi8qAxZ0">
    <mxGraphModel dx="882" dy="578" grid="1" gridSize="10" guides="1" tooltips="1" connect="1" arrows="1" fold="1" page="1" pageScale="1" pageWidth="850" pageHeight="1100" math="0" shadow="0">
      <root>
        <mxCell id="0" />
        <mxCell id="1" parent="0" />
        <mxCell id="qiO_hPwuFdxvZxoSVy8A-5" style="edgeStyle=orthogonalEdgeStyle;rounded=0;orthogonalLoop=1;jettySize=auto;html=1;exitX=1;exitY=0.5;exitDx=0;exitDy=0;" edge="1" parent="1" source="QY3fSjqpYz8GA3IVz9RK-1" target="qiO_hPwuFdxvZxoSVy8A-3">
          <mxGeometry relative="1" as="geometry" />
        </mxCell>
        <mxCell id="QY3fSjqpYz8GA3IVz9RK-1" value="Video" style="rounded=1;whiteSpace=wrap;html=1;" parent="1" vertex="1">
          <mxGeometry x="80" y="120" width="120" height="60" as="geometry" />
        </mxCell>
        <mxCell id="qiO_hPwuFdxvZxoSVy8A-6" style="edgeStyle=orthogonalEdgeStyle;rounded=0;orthogonalLoop=1;jettySize=auto;html=1;exitX=1;exitY=0.5;exitDx=0;exitDy=0;entryX=0;entryY=0.5;entryDx=0;entryDy=0;" edge="1" parent="1" source="qiO_hPwuFdxvZxoSVy8A-1" target="qiO_hPwuFdxvZxoSVy8A-4">
          <mxGeometry relative="1" as="geometry" />
        </mxCell>
        <mxCell id="qiO_hPwuFdxvZxoSVy8A-1" value="Text query" style="rounded=1;whiteSpace=wrap;html=1;" vertex="1" parent="1">
          <mxGeometry x="80" y="240" width="120" height="60" as="geometry" />
        </mxCell>
        <mxCell id="qiO_hPwuFdxvZxoSVy8A-2" value="" style="swimlane;startSize=0;" vertex="1" parent="1">
          <mxGeometry x="280" y="80" width="200" height="280" as="geometry" />
        </mxCell>
        <mxCell id="qiO_hPwuFdxvZxoSVy8A-3" value="Video encoder" style="rounded=1;whiteSpace=wrap;html=1;" vertex="1" parent="qiO_hPwuFdxvZxoSVy8A-2">
          <mxGeometry x="40" y="40" width="120" height="60" as="geometry" />
        </mxCell>
        <mxCell id="qiO_hPwuFdxvZxoSVy8A-4" value="Text encoder" style="rounded=1;whiteSpace=wrap;html=1;" vertex="1" parent="qiO_hPwuFdxvZxoSVy8A-2">
          <mxGeometry x="40" y="160" width="120" height="60" as="geometry" />
        </mxCell>
        <mxCell id="qiO_hPwuFdxvZxoSVy8A-7" value="ML model" style="text;html=1;strokeColor=none;fillColor=none;align=center;verticalAlign=middle;whiteSpace=wrap;rounded=0;" vertex="1" parent="qiO_hPwuFdxvZxoSVy8A-2">
          <mxGeometry x="140" width="60" height="30" as="geometry" />
        </mxCell>
        <mxCell id="qiO_hPwuFdxvZxoSVy8A-8" value="Video embedding" style="rounded=1;whiteSpace=wrap;html=1;" vertex="1" parent="1">
          <mxGeometry x="560" y="120" width="120" height="60" as="geometry" />
        </mxCell>
        <mxCell id="qiO_hPwuFdxvZxoSVy8A-9" value="Text embedding" style="rounded=1;whiteSpace=wrap;html=1;" vertex="1" parent="1">
          <mxGeometry x="560" y="240" width="120" height="60" as="geometry" />
        </mxCell>
        <mxCell id="qiO_hPwuFdxvZxoSVy8A-10" style="edgeStyle=orthogonalEdgeStyle;rounded=0;orthogonalLoop=1;jettySize=auto;html=1;exitX=1;exitY=0.5;exitDx=0;exitDy=0;" edge="1" parent="1" source="qiO_hPwuFdxvZxoSVy8A-3" target="qiO_hPwuFdxvZxoSVy8A-8">
          <mxGeometry relative="1" as="geometry" />
        </mxCell>
        <mxCell id="qiO_hPwuFdxvZxoSVy8A-11" style="edgeStyle=orthogonalEdgeStyle;rounded=0;orthogonalLoop=1;jettySize=auto;html=1;exitX=1;exitY=0.5;exitDx=0;exitDy=0;entryX=0;entryY=0.5;entryDx=0;entryDy=0;" edge="1" parent="1" source="qiO_hPwuFdxvZxoSVy8A-4" target="qiO_hPwuFdxvZxoSVy8A-9">
          <mxGeometry relative="1" as="geometry" />
        </mxCell>
      </root>
    </mxGraphModel>
  </diagram>
</mxfile>
